# xmcd CD database file
#
# Track frame offsets:
#	150
#	27150
#	53072
#	74800
#	100330
#	132645
#	158512
#	186965
#	214587
#	240110
#
# Disc length: 3560 seconds
#
# Revision: 0
# Processed by: cddbd v1.5.1PL0 Copyright (c) Steve Scherf et al.
# Submitted via: CDex 1.51
#
DISCID=870de60a
DTITLE=Tokyo House Underground Vol.1 - Tokyo House Underground Vol.1
DYEAR=1991
DGENRE=House
TTITLE0=More Deep - Nobody
TTITLE1=M.M. Apolo Faith - Headed for Tokyo
TTITLE2=Takahashitektronix - Tektric
TTITLE3=PC-8 - Phylocalia
TTITLE4=Sub Sonic Factor - 2 B-IN Love
TTITLE5=3P - Peanut Cream
TTITLE6=Flower - Flower
TTITLE7=CMJK and Super Akira MC - Get Up Stand Up
TTITLE8=Cutemen - Waiting for Love
TTITLE9=Ecstasy Boys - Heaven Lake (Peace and Love Nation Mix)
EXTD=YEAR: 1991
EXTT0=
EXTT1=
EXTT2=
EXTT3=
EXTT4=
EXTT5=
EXTT6=
EXTT7=
EXTT8=
EXTT9=
PLAYORDER=
